<?xml version="1.0" encoding="UTF-8"?>
<svg width="100px" height="100px" viewBox="0 0 100 100" version="1.1" xmlns="http://www.w3.org/2000/svg" xmlns:xlink="http://www.w3.org/1999/xlink">
    <!-- Generator: Sketch 52.6 (67491) - http://www.bohemiancoding.com/sketch -->
    <title>Smiling Face With Sunglasses (1F60E)</title>
    <desc>Created with Sketch.</desc>
    <g id="Smiling-Face-With-Sunglasses-(1F60E)" stroke="none" stroke-width="1" fill="none" fill-rule="evenodd">
        <circle id="Oval-2" fill="#F6C338" cx="50" cy="50" r="45"></circle>
        <circle id="Oval-2" fill="#F6D659" cx="50" cy="48" r="41"></circle>
        <path d="M49.8050278,36.1592259 C49.8444511,36.1585794 49.8841102,36.1582562 49.924005,36.1582562 C55.904243,36.1582562 60.1624694,31.8831169 74.6709398,31.8831169 C82.3546039,31.8831169 84.8087707,31.8831169 86.3293648,32.3972192 C87.8499589,32.9113216 87.726744,34.5364905 87.4128067,36.1582562 C87.0988695,37.7800218 84.9112237,38.4623902 84.4691172,40.5577116 C84.0270107,42.6530329 83.8398646,44.9935517 82.2369488,49.0508261 C80.634033,53.1081005 77.8312779,56.3349239 70.2493256,56.3349239 C62.6673733,56.3349239 60.1592599,55.8846541 57.1458961,52.7778572 C54.1325322,49.6710603 52.5329444,45.488745 52.0513635,43.9158089 C51.5859872,42.3958003 51.3335589,40.9495719 49.8050278,40.8539652 C48.2764967,40.9495719 48.0240684,42.3958003 47.5586921,43.9158089 C47.0771112,45.488745 45.4775234,49.6710603 42.4641596,52.7778572 C39.4507957,55.8846541 36.9426824,56.3349239 29.36073,56.3349239 C21.7787777,56.3349239 18.9760226,53.1081005 17.3731068,49.0508261 C15.7701911,44.9935517 15.5830449,42.6530329 15.1409384,40.5577116 C14.6988319,38.4623902 12.5111861,37.7800218 12.1972489,36.1582562 C11.8833117,34.5364905 11.7600967,32.9113216 13.2806908,32.3972192 C14.8012849,31.8831169 17.2554517,31.8831169 24.9391158,31.8831169 C39.4475863,31.8831169 43.7058126,36.1582562 49.6860506,36.1582562 C49.7259454,36.1582562 49.7656045,36.1585794 49.8050278,36.1592259 Z" id="Combined-Shape" fill="#0F0F0F"></path>
        <path d="M18.8833136,43.0407478 C17.8806156,39.2698991 18.2152003,36.8465325 19.8870678,35.770648 C22.3948689,34.1568212 27.6739491,33.9937045 36.4782507,35.466991 C42.3477851,36.4491819 44.9448539,38.3660024 44.269457,41.2174524 L18.8833136,43.0407478 Z" id="Path-11" fill="#49473A"></path>
        <path d="M56.2361111,40.5006382 C56.4665317,38.947535 57.1877762,37.9443177 58.3998446,37.4909865 C60.3917425,36.7459877 65.7580361,35.7799254 72.3620728,35.7421119 C78.9661095,35.7042984 79.5826578,36.2489583 80.3772009,37.0568584 C80.7728416,37.4591501 81.0207261,38.0170234 81.1208544,38.7304784 L56.2361111,40.5006382 Z" id="Combined-Shape" fill="#49473A"></path>
        <path d="M70.2029309,63.578303 C71.0828613,62.617521 71.6624532,63.0499781 71.941913,63.4759695 C72.1255769,63.7559354 72.1378185,64.2163169 71.9786379,64.8571138 C71.0711277,68.1676773 64.0393731,76.7274974 49.9846503,76.7190815 C35.9299275,76.7106655 29.0149185,68.1550858 28.1108599,64.8571138 C27.9516793,64.2163169 27.9639209,63.7559354 28.1475848,63.4759695 C28.4270447,63.0499781 29.0721898,62.6917421 29.8865669,63.578303 C31.6376455,65.9621524 39.6425785,70.3493461 50.0447489,70.3399219 C60.4469193,70.3304977 68.4641062,65.9454704 70.2029309,63.578303 Z" id="Combined-Shape" fill="#7B4101"></path>
    </g>
</svg>