<?xml version="1.0" encoding="UTF-8"?>
<svg width="100px" height="100px" viewBox="0 0 100 100" version="1.1" xmlns="http://www.w3.org/2000/svg" xmlns:xlink="http://www.w3.org/1999/xlink">
    <!-- Generator: Sketch 52.6 (67491) - http://www.bohemiancoding.com/sketch -->
    <title>Dizzy Face (1F635)</title>
    <desc>Created with Sketch.</desc>
    <g id="Dizzy-Face-(1F635)" stroke="none" stroke-width="1" fill="none" fill-rule="evenodd">
        <circle id="Oval-2" fill="#F6C338" cx="50" cy="50" r="45"></circle>
        <circle id="Oval-2" fill="#F6D659" cx="50" cy="48" r="41"></circle>
        <polygon id="Combined-Shape" fill="#834804" points="31.1073032 44.2895714 23.8333333 37.0021063 26.6095098 34.2207792 33.8834796 41.5082444 41.1574495 34.2207792 43.933626 37.0021063 36.6596561 44.2895714 43.933626 51.5770366 41.1574495 54.3583637 33.8834796 47.0708985 26.6095098 54.3583637 23.8333333 51.5770366"></polygon>
        <path d="M23.7064149,26.4915557 C21.7927037,27.0413217 20.631819,26.4422241 20.631819,25.5148356 C20.631819,23.6262097 24.0235082,22.3085731 29.1829652,21.7765557 C33.7176004,21.3089668 39.0856495,23.1784838 40.5145434,24.5075328 C40.7114289,24.6906608 40.6682618,25.0446071 40.7103648,25.1917103 C40.9032689,25.8656947 38.8058448,25.8293524 37.8757326,25.5467697 C37.1198551,25.3171223 33.8329747,24.7538636 30.6441515,24.968008 C27.4553284,25.1821525 25.6201262,25.9417898 23.7064149,26.4915557 Z" id="Combined-Shape" fill="#7B4101" transform="translate(30.677320, 24.202531) scale(-1, 1) rotate(16.000000) translate(-30.677320, -24.202531) "></path>
        <polygon id="Combined-Shape" fill="#834804" points="69.0593635 44.2895714 76.3333333 51.5770366 73.5571568 54.3583637 66.283187 47.0708985 59.0092172 54.3583637 56.2330407 51.5770366 63.5070105 44.2895714 56.2330407 37.0021063 59.0092172 34.2207792 66.283187 41.5082444 73.5571568 34.2207792 76.3333333 37.0021063"></polygon>
        <path d="M62.5184408,26.4915557 C60.6047296,27.0413217 59.4438449,26.4422241 59.4438449,25.5148356 C59.4438449,23.6262097 62.8355342,22.3085731 67.9949911,21.7765557 C72.5296263,21.3089668 77.8976754,23.1784838 79.3265693,24.5075328 C79.5234548,24.6906608 79.4802877,25.0446071 79.5223907,25.1917103 C79.7152948,25.8656947 77.6178707,25.8293524 76.6877585,25.5467697 C75.931881,25.3171223 72.6450006,24.7538636 69.4561774,24.968008 C66.2673543,25.1821525 64.4321521,25.9417898 62.5184408,26.4915557 Z" id="Combined-Shape" fill="#7B4101" transform="translate(69.489346, 24.202531) rotate(16.000000) translate(-69.489346, -24.202531) "></path>
        <ellipse id="Oval-3" fill="#7B4101" cx="49.8333333" cy="70.8571429" rx="12.8333333" ry="12.8571429"></ellipse>
    </g>
</svg>